/* XPM */
static char *_a64ce61dc984300f57dc5ec831f66e2YkOTbjv9potxcdGY[] = {
/* columns rows colors chars-per-pixel */
"64 64 17 1 ",
"  c gray7",
". c #111111",
"X c #FFD900",
"o c #050509",
"O c #FEDE01",
"+ c #0A0A0D",
"@ c black",
"# c #FFE800",
"$ c #171611",
"% c #F7D401",
"& c #343110",
"* c #D5BF05",
"= c #B9A707",
"- c #6F670C",
"; c #514C0D",
": c #A29308",
"> c #867A0B",
/* pixels */
"o++++++++++++++++++++++++++++++++++++++++++++++++++++++++++++++o",
"o                                                              o",
"o... ..    ... .. .... ..... ... ........  .. ...  .......... .o",
"o .                            .           .        .          o",
"o         .       .             .                      .      .o",
"o           ..                       ..        .        .  .   o",
"o     .     ..          . . . . .   ..    ..          ...      o",
"o .                     .      .      ..                  . .  o",
"o .    .           .  ....   . ..     ... .. ...   ..   .   ...o",
"o     .    ..                   ..      . .                   .o",
"o          .                 ... . ..     . .                 .o",
"o .                           ..  ..     .                  .  o",
"o                         .    $    ...  .  ...    .         ..o",
"o .           ..       .. $$ ++o++. $  .    ..   ....   .   ...o",
"o .     .   .   .     ..$.oo+$&;;&$oo+$ . ...   .   ..         o",
"o              ..    .  o ;:*%O#OX%=>&o+$ ..           .      .o",
"o .      .     .    .$++-*##OOXXXXO##O=&o. .                   o",
"o   .       ..    ..$o&*#O%%XXXXXXXX%X#O:.+$...                o",
"o            ... ..$o;%#%XXXXXXXXXXXXX%X#*$o$..   .         .  o",
"o              . .$o;#O%XXXXXXXXXXXXXXXX%#*$+ .   .            o",
"o ...     . ..    +&OOXXXXXXXXXXXXXXXXXXX%#*+.  .             .o",
"o .          .    +*O%XXXXXXXXXXXXXXXXXXXX%#>o$             . .+",
"o . .   .    ...$o-#%XXXXXXXXXXXXXXXXXXXXXXXO&+   .         . .o",
"o   .  .        .$%OXXXXXXXXXXXXXXXXXXXXXXX%#=o$.  .   .      .o",
"o            . $o-#%XXXXXXXXXXXXXXXXXXXXXXXXXO&+            .  o",
"o .        .  .$o=#XXXXXXXXXXXXXXXXXXXXXXXXX%#-o$   .          o",
"o .            .$%OXXXXXXXXXXXXXXXXXXXXXXXXXX#=o$   ... . .   .o",
"o .          . +&OXXXXXXXXXXXXXXXXXXXXXXXXXXXO* .         ...  o",
"o             $o;#%XXXXXXXXXXXXXXXXXXXXXXXXXXO%$. .            o",
"o           ..$o-#%XXXXXXXXXXXXXXXXXXXXXXXXXX%#&+  .      ..  .o",
"o .  .        $o-#%XXXXXXXXXXXXXXXXXXXXXXXXXXXO&+    .    ..  .+",
"o      .   .  $o;#%XXXXXXXXXXXXXXXXXXXXXXXXXXX%$.            ..o",
"o .            +&OXXXXXXXXXXXXXXXXXXXXXXXXXXXO*..     .  .. .. o",
"o .             $%OXXXXXXXXXXXXXXXXXXXXXXXXXX#:o$   .   .....  o",
"o              $o=#XXXXXXXXXXXXXXXXXXXXXXXXX%#-o$ .       .    o",
"o .            $o-#%XXXXXXXXXXXXXXXXXXXXXXXXX%&+            . .o",
"o .             .$*OXXXXXXXXXXXXXXXXXXXXXXX%#:o$            .. o",
"o .  .     .  . $o-#%XXXXXXXXXXXXXXXXXXXXXXXO&+     . .     .. o",
"o ..          .   +=#%XXXXXXXXXXXXXXXXXXXX%#-o$. . . .     .  .o",
"o .             . +&%O%XXXXXXXXXXXXXXXXXX%#=o  .         ... ..o",
"o .           . ..$o&OO%XXXXXXXXXXXXXXXX%#=..        ..     .. o",
"o .           . . .$o&%#%XXXXXXXXXXXXX%X#=.+ ...   .      . .. o",
"o    . .           .$o$=#OX%XXXXXXXX%X#O>+. ..             .   o",
"o              .  . .$+o;*###OXXXOO##X:&o  .          ..   .   o",
"o   .             .  .  o+&>=*%OO%*=-&o+$ .         .. .  .  ..o",
"o .               ..  . $ +o+$&&&& oo+$   .         ..     ....o",
"o .                        $ .++++.$$                    . .  .o",
"o .            .                                          .   .o",
"o .                 .   .    .                               ..o",
"o                                                     .       .o",
"o .                               .                       .  . o",
"o                                                           ...o",
"o                         .                                 . .o",
"o .    .                    .         .                   . ...o",
"o                      .                    .                ..o",
"o                                       .                      o",
"o .    .                                  .          . ... ....o",
"o     ..                                                  .... o",
"o                         .                                    o",
"o                         .           .   .             . . . .o",
"o .                          .            .       ..    .. . ..o",
"o . .  .   .    . ...  . .......  . .  .. . ...  ... ..........o",
"o                                                              o",
"@@@@@@@@@@@@@@@@@@@@@@@@@@@@@@@@@@@@@@@@@@@@@@@@@@@@@@@@@@@@@@@@"
};
