/* XPM */
static char *c1552b8787fc46f2d86ea81d4684efc1Q2BnoHpDyE5EVHiA[] = {
/* columns rows colors chars-per-pixel */
"64 64 5 1 ",
"  c #3C3C3C",
". c #010101",
"X c gray26",
"o c gray13",
"O c #313131",
/* pixels */
"................................................................",
".oooooooooooooooooooooooooooooooooooooooooooooooooooooooooooooo.",
". XXXXXXXXXXXXXXXXXXXXXXXXXXXXXXXXXXXXXXXXXXXXXXXXXXXXXXXXXXXXO.",
".O                                                           XO.",
".OX                          O                               XO.",
".O                                                 O          O.",
".O        O        O  O                   O                  XO.",
".OX                                                           O.",
".OX                                                  O        O.",
".O                                              O            XO.",
".OX                                                O          O.",
".OX                                                           O.",
".OX             O                         O                  XO.",
".OX                                                           O.",
".OX                                                           O.",
".O                                                      O    XO.",
".OX                                                           O.",
".OX                                                          XO.",
".O                                                            O.",
".OX                                                           O.",
".OX                                                          XO.",
".OX                                                           O.",
".OX                                                          XO.",
".O                                                            O.",
".OX                                                          XO.",
".OX                                                           O.",
".OX                                                          XO.",
".O                                                           XO.",
".O                                                            O.",
".O                                                           XO.",
".OX                                                          XO.",
".OX                                                           O.",
".OX                                                          XO.",
".OX                                                          XO.",
".O                                                            O.",
".OX                                                          XO.",
".OX                                                          XO.",
".OX                                                           O.",
".OX                                                          XO.",
".OX                                                          XO.",
".OX                                                          XO.",
".OX                                                           O.",
".OX                                                          XO.",
".OX                                                           O.",
".OX                                                          XO.",
".OX                                                          XO.",
".OX                                                          XO.",
".OX                                                          XO.",
".OX                                                           O.",
".OX                                                          XO.",
".OX                                                           O.",
".OX                                                          XO.",
".OX                                X                         XO.",
".OX                                                          XO.",
".OX                                                          XO.",
".OX                                                          XO.",
".OX                                                           O.",
".OX                                                          XO.",
".OX                                                          XO.",
".OX                                                           O.",
".O                                                           XO.",
". XXXXXXXXXXXXXXXXXXXXXXXXXXXXXXXXXXXXXXXXXXXXXXXXXXXXXXXXXXXXO.",
"................................................................",
".oooooooooooooooooooooooooooooooooooooooooooooooooooooooooooooo."
};
